<svg width="321" height="204" viewBox="0 0 321 204" fill="none" xmlns="http://www.w3.org/2000/svg">
<path d="M152.633 140.369C167.38 105.594 151.144 65.4482 116.369 50.7013C81.5939 35.9545 41.4484 52.1906 26.7015 86.9658C11.9547 121.741 28.1908 161.886 62.966 176.633C97.7411 191.38 137.887 175.144 152.633 140.369Z" fill="#141D23"/>
<path opacity="0.1" d="M89.8144 179.653C125.86 179.653 155.081 150.432 155.081 114.386C155.081 78.3399 125.86 49.119 89.8144 49.119C53.7685 49.119 24.5476 78.3399 24.5476 114.386C24.5476 150.432 53.7685 179.653 89.8144 179.653Z" fill="black"/>
<path d="M150.045 124.844C155.822 91.5752 133.535 59.923 100.266 54.1466C66.9976 48.3702 35.3453 70.6571 29.5689 103.926C23.7925 137.194 46.0794 168.847 79.348 174.623C112.617 180.399 144.269 158.112 150.045 124.844Z" fill="#E1E1E1"/>
<path d="M90.4189 57.6864H89.2307V66.9626H90.4189V57.6864Z" fill="#141D23"/>
<path d="M62.0048 64.9567L60.9758 65.5508L65.6139 73.5842L66.6429 72.9901L62.0048 64.9567Z" fill="#141D23"/>
<path d="M40.9908 85.4629L40.3967 86.4918L48.4302 91.1299L49.0242 90.101L40.9908 85.4629Z" fill="#141D23"/>
<path d="M42.3911 113.802H33.115V114.99H42.3911V113.802Z" fill="#141D23"/>
<path d="M48.4052 137.653L40.3718 142.291L40.9659 143.32L48.9993 138.682L48.4052 137.653Z" fill="#141D23"/>
<path d="M65.5951 155.197L60.9626 163.234L61.9921 163.827L66.6246 155.791L65.5951 155.197Z" fill="#141D23"/>
<path d="M90.4189 161.83H89.2307V171.106H90.4189V161.83Z" fill="#141D23"/>
<path d="M114.052 155.202L113.023 155.797L117.661 163.83L118.69 163.236L114.052 155.202Z" fill="#141D23"/>
<path d="M131.185 137.528L130.591 138.557L138.624 143.196L139.219 142.167L131.185 137.528Z" fill="#141D23"/>
<path d="M146.534 113.802H137.258V114.99H146.534V113.802Z" fill="#141D23"/>
<path d="M138.603 85.5908L130.569 90.2275L131.163 91.2567L139.197 86.62L138.603 85.5908Z" fill="#141D23"/>
<path d="M117.655 64.9664L113.021 73.0022L114.05 73.5958L118.684 65.56L117.655 64.9664Z" fill="#141D23"/>
<path d="M116.58 69.2139L90.2939 119.41L85.291 116.47L115.225 68.4218L116.58 69.2139Z" fill="#967043"/>
<path d="M68.9066 78.8862L94.4421 116.178L89.4392 119.118L67.5308 79.6782L68.9066 78.8862Z" fill="#141D23"/>
<path d="M91.7947 114.386C91.8155 114.802 91.7111 115.215 91.4951 115.571C91.2791 115.927 90.9613 116.21 90.5827 116.384C90.2041 116.558 89.7821 116.615 89.3711 116.546C88.9602 116.478 88.5791 116.288 88.277 116.001C87.975 115.714 87.7658 115.343 87.6766 114.937C87.5873 114.53 87.6221 114.105 87.7763 113.718C87.9306 113.331 88.1972 112.999 88.5419 112.765C88.8866 112.531 89.2935 112.406 89.7101 112.405C89.9788 112.391 90.2476 112.432 90.5 112.525C90.7524 112.618 90.9832 112.762 91.1783 112.947C91.3734 113.133 91.5286 113.356 91.6346 113.603C91.7406 113.85 91.795 114.117 91.7947 114.386Z" fill="#141D23"/>
<path d="M305.458 96.7305C313.742 59.8775 290.583 23.2861 253.73 15.0012C216.878 6.71627 180.286 29.8752 172.001 66.7282C163.716 103.581 186.875 140.173 223.728 148.458C260.581 156.742 297.173 133.583 305.458 96.7305Z" fill="#141D23"/>
<path opacity="0.1" d="M238.442 147.572C274.488 147.572 303.709 118.351 303.709 82.3047C303.709 46.2589 274.488 17.038 238.442 17.038C202.396 17.038 173.175 46.2589 173.175 82.3047C173.175 118.351 202.396 147.572 238.442 147.572Z" fill="black"/>
<path d="M238.442 143.444C272.208 143.444 299.581 116.071 299.581 82.3048C299.581 48.5384 272.208 21.1654 238.442 21.1654C204.675 21.1654 177.302 48.5384 177.302 82.3048C177.302 116.071 204.675 143.444 238.442 143.444Z" fill="#E1E1E1"/>
<path d="M239.025 25.5846H237.837V34.8607H239.025V25.5846Z" fill="#141D23"/>
<path d="M210.609 32.8512L209.58 33.4453L214.218 41.4787L215.247 40.8846L210.609 32.8512Z" fill="#141D23"/>
<path d="M189.622 53.3765L189.028 54.4055L197.061 59.0436L197.655 58.0146L189.622 53.3765Z" fill="#141D23"/>
<path d="M190.998 81.7211H181.721V82.9093H190.998V81.7211Z" fill="#141D23"/>
<path d="M197.038 105.575L189.005 110.214L189.599 111.243L197.632 106.604L197.038 105.575Z" fill="#141D23"/>
<path d="M214.201 123.044L209.568 131.081L210.598 131.674L215.23 123.638L214.201 123.044Z" fill="#141D23"/>
<path d="M239.025 129.749H237.837V139.025H239.025V129.749Z" fill="#141D23"/>
<path d="M266.2 126.828L265.167 127.422L269.805 135.492L270.838 134.898L266.2 126.828Z" fill="#141D23"/>
<path d="M279.816 105.442L279.222 106.471L287.256 111.109L287.85 110.08L279.816 105.442Z" fill="#141D23"/>
<path d="M295.141 81.7211H285.865V82.9093H295.141V81.7211Z" fill="#141D23"/>
<path d="M290.93 56.7448L282.859 61.3829L283.453 62.4167L291.524 57.7786L290.93 56.7448Z" fill="#141D23"/>
<path d="M266.306 32.9861L261.67 41.0212L262.7 41.6149L267.335 33.5798L266.306 32.9861Z" fill="#141D23"/>
<path d="M257.078 131.396L234.21 79.5531L239.63 77.4686L258.537 130.833L257.078 131.396Z" fill="#967043"/>
<path d="M197.418 86.3279L242.006 78.8444L242.569 84.6394L197.564 87.8913L197.418 86.3279Z" fill="#141D23"/>
<path d="M240.422 82.3048C240.422 82.5649 240.371 82.8224 240.271 83.0626C240.172 83.3029 240.026 83.5212 239.842 83.7051C239.658 83.889 239.44 84.0348 239.2 84.1344C238.959 84.2339 238.702 84.2851 238.442 84.2851C238.182 84.2851 237.924 84.2339 237.684 84.1344C237.444 84.0348 237.225 83.889 237.041 83.7051C236.858 83.5212 236.712 83.3029 236.612 83.0626C236.513 82.8224 236.461 82.5649 236.461 82.3048C236.461 82.0447 236.513 81.7872 236.612 81.5469C236.712 81.3067 236.858 81.0884 237.041 80.9045C237.225 80.7206 237.444 80.5747 237.684 80.4752C237.924 80.3757 238.182 80.3245 238.442 80.3245C238.702 80.3245 238.959 80.3757 239.2 80.4752C239.44 80.5747 239.658 80.7206 239.842 80.9045C240.026 81.0884 240.172 81.3067 240.271 81.5469C240.371 81.7872 240.422 82.0447 240.422 82.3048Z" fill="#141D23"/>
<path d="M303.708 149.219H166.9V159.912H303.708V149.219Z" fill="#141D23"/>
<path d="M303.708 159.891H166.9V154.555L303.708 156.452V159.891Z" fill="#E1E1E1"/>
<path d="M309.983 159.891H173.175V170.585H309.983V159.891Z" fill="#141D23"/>
<path d="M309.962 170.585H173.154V165.249L309.962 167.145V170.585Z" fill="#E1E1E1"/>
<path d="M292.994 170.585H156.186V181.279H292.994V170.585Z" fill="#141D23"/>
<path d="M292.994 181.279H156.186V175.921L292.994 177.839V181.279Z" fill="#E1E1E1"/>
</svg>
