<svg width="320" height="320" viewBox="0 0 320 320" fill="none" xmlns="http://www.w3.org/2000/svg">
<path d="M267.405 148.941C268.136 138.913 267.646 128.834 265.946 118.925C264.331 110.029 261.533 101.389 257.626 93.2352C238.003 52.2368 191.462 25.9584 146.266 35.072C121.306 40.096 90.7648 57.568 82.8544 83.3472C77.2608 101.568 79.6544 121.523 70.7392 138.835C61.5872 156.672 52.3264 172.467 54.7392 193.485C57.2992 216 72.576 235.667 91.5712 248.019C115.155 263.379 146.253 271.853 174.33 269.882C229.491 266.016 263.834 203.136 267.405 148.941Z" fill="#141D23"/>
<path opacity="0.8" d="M267.405 148.941C268.136 138.913 267.646 128.834 265.946 118.925C264.331 110.029 261.533 101.389 257.626 93.2352C238.003 52.2368 191.462 25.9584 146.266 35.072C121.306 40.096 90.7648 57.568 82.8544 83.3472C77.2608 101.568 79.6544 121.523 70.7392 138.835C61.5872 156.672 52.3264 172.467 54.7392 193.485C57.2992 216 72.576 235.667 91.5712 248.019C115.155 263.379 146.253 271.853 174.33 269.882C229.491 266.016 263.834 203.136 267.405 148.941Z" fill="#7E3232" fill-opacity="0.75"/>
<path opacity="0.5" d="M266.374 123.168H242.157C240.658 123.168 239.443 124.383 239.443 125.882V138.49C239.443 139.988 240.658 141.203 242.157 141.203H266.374C267.873 141.203 269.088 139.988 269.088 138.49V125.882C269.088 124.383 267.873 123.168 266.374 123.168Z" fill="#141D23"/>
<path opacity="0.5" d="M239.949 125.152L252.838 131.77C253.243 131.973 253.691 132.079 254.144 132.079C254.597 132.079 255.045 131.973 255.45 131.77L268.672 125.101" stroke="#7E3232" stroke-width="0.75" stroke-linecap="round" stroke-linejoin="round"/>
<path opacity="0.5" d="M80.7936 121.901C80.6969 121.776 80.5728 121.674 80.4308 121.604C80.2888 121.534 80.1327 121.498 79.9744 121.498H53.5168L52.48 118.432C52.408 118.235 52.2773 118.065 52.1056 117.945C51.934 117.825 51.7296 117.76 51.52 117.76H44.8C44.5416 117.78 44.3003 117.897 44.1244 118.088C43.9485 118.278 43.8507 118.528 43.8507 118.787C43.8507 119.046 43.9485 119.296 44.1244 119.487C44.3003 119.677 44.5416 119.794 44.8 119.814H50.7584L57.216 139.2C57.2834 139.405 57.4137 139.583 57.5884 139.71C57.7631 139.836 57.9732 139.904 58.1888 139.904H58.5664C58.2211 140.438 58.0263 141.056 58.0025 141.692C57.9786 142.328 58.1266 142.958 58.4309 143.517C58.7352 144.076 59.1844 144.542 59.7314 144.867C60.2784 145.192 60.9029 145.364 61.5392 145.364C62.1755 145.364 62.8 145.192 63.347 144.867C63.894 144.542 64.3432 144.076 64.6475 143.517C64.9518 142.958 65.0998 142.328 65.0759 141.692C65.0521 141.056 64.8573 140.438 64.512 139.904H69.4464C69.1011 140.438 68.9063 141.056 68.8825 141.692C68.8586 142.328 69.0066 142.958 69.3109 143.517C69.6152 144.076 70.0644 144.542 70.6114 144.867C71.1584 145.192 71.7829 145.364 72.4192 145.364C73.0555 145.364 73.68 145.192 74.227 144.867C74.774 144.542 75.2232 144.076 75.5275 143.517C75.8318 142.958 75.9798 142.328 75.9559 141.692C75.9321 141.056 75.7373 140.438 75.392 139.904H76.1856C76.444 139.884 76.6853 139.767 76.8612 139.576C77.0371 139.386 77.1349 139.136 77.1349 138.877C77.1349 138.618 77.0371 138.368 76.8612 138.177C76.6853 137.987 76.444 137.87 76.1856 137.85H58.9056L57.7792 134.464H76.9792C77.2052 134.463 77.4247 134.389 77.604 134.251C77.7832 134.113 77.9122 133.921 77.9712 133.702L80.896 122.822C80.9526 122.672 80.9729 122.509 80.9551 122.349C80.9373 122.189 80.882 122.036 80.7936 121.901ZM61.5936 143.258C61.2999 143.258 61.0129 143.171 60.7687 143.007C60.5245 142.844 60.3342 142.612 60.2218 142.341C60.1094 142.07 60.08 141.771 60.1373 141.483C60.1946 141.195 60.336 140.931 60.5437 140.723C60.7513 140.515 61.0159 140.374 61.3039 140.317C61.592 140.259 61.8905 140.289 62.1618 140.401C62.4331 140.513 62.665 140.704 62.8282 140.948C62.9913 141.192 63.0784 141.479 63.0784 141.773C63.0784 141.971 63.039 142.166 62.9624 142.349C62.8858 142.531 62.7735 142.696 62.6323 142.834C62.491 142.973 62.3235 143.081 62.1396 143.154C61.9558 143.227 61.7593 143.262 61.5616 143.258H61.5936ZM72.4736 143.258C72.1799 143.258 71.8929 143.171 71.6487 143.007C71.4045 142.844 71.2142 142.612 71.1018 142.341C70.9894 142.07 70.96 141.771 71.0173 141.483C71.0746 141.195 71.216 140.931 71.4237 140.723C71.6313 140.515 71.8959 140.374 72.1839 140.317C72.472 140.259 72.7705 140.289 73.0418 140.401C73.3131 140.513 73.545 140.704 73.7082 140.948C73.8713 141.192 73.9584 141.479 73.9584 141.773C73.9584 141.971 73.919 142.166 73.8424 142.349C73.7658 142.531 73.6535 142.696 73.5123 142.834C73.371 142.973 73.2035 143.081 73.0196 143.154C72.8358 143.227 72.6393 143.262 72.4416 143.258H72.4736ZM75.2128 132.378H71.4112V123.552H75.2128V132.378ZM65.5552 123.552H69.3568V132.378H65.5552V123.552ZM63.5008 132.378H59.6608V123.552H63.5008V132.378ZM54.2016 123.552H57.6V132.378H57.1392L54.2016 123.552ZM77.2416 128.749V123.552H78.6432L77.2416 128.749Z" fill="#141D23"/>
<path opacity="0.5" d="M243.2 72.96L245.574 71.8784L245.069 69.0304L242.451 68.8256C242.119 67.9463 241.679 67.112 241.139 66.3424L242.49 64.064L240.448 62.016L238.15 63.3856C236.829 62.4871 235.333 61.8765 233.76 61.5936L233.12 58.9696H230.227L229.587 61.6064C228.689 61.7777 227.814 62.0571 226.982 62.4384L224.915 60.6464L222.547 62.304L223.52 64.864C222.886 65.5166 222.33 66.2403 221.862 67.0208L219.136 66.7392L218.144 69.4592L220.403 70.9888C220.293 71.6228 220.237 72.2652 220.237 72.9088C220.237 73.184 220.237 73.4528 220.269 73.7216L217.901 75.0464L218.65 77.8432H221.331C221.728 78.6804 222.225 79.4668 222.81 80.1856L221.626 82.56L223.84 84.416L225.99 82.88C226.797 83.3453 227.657 83.7127 228.55 83.9744L228.979 86.5344L231.866 86.7904L232.73 84.3328C233.677 84.2508 234.61 84.0509 235.507 83.7376L237.325 85.5808L239.834 84.1344L239.142 81.6448C239.867 81.0271 240.512 80.322 241.062 79.5456L243.622 80.0128L244.864 77.44L242.867 75.7888C243.093 74.863 243.205 73.913 243.2 72.96ZM238.918 72.9088C238.918 74.3379 238.495 75.7349 237.701 76.9231C236.907 78.1114 235.778 79.0375 234.458 79.5844C233.138 80.1313 231.685 80.2744 230.283 79.9956C228.882 79.7168 227.594 79.0286 226.584 78.0181C225.573 77.0076 224.885 75.7201 224.606 74.3184C224.327 72.9168 224.47 71.464 225.017 70.1437C225.564 68.8234 226.49 67.6949 227.678 66.9009C228.867 66.107 230.264 65.6832 231.693 65.6832C232.648 65.6789 233.595 65.8644 234.479 66.2289C235.362 66.5934 236.164 67.1297 236.839 67.8066C237.513 68.4835 238.047 69.2876 238.408 70.1722C238.769 71.0569 238.952 72.0044 238.944 72.96L238.918 72.9088Z" fill="#141D23"/>
<path opacity="0.5" d="M234.182 199.821C234.04 200.087 234.005 200.398 234.086 200.689C234.167 200.98 234.358 201.228 234.618 201.382C234.932 201.573 235.309 201.633 235.667 201.551C236.026 201.468 236.338 201.25 236.538 200.941L239.91 195.738L239.974 195.622L244.314 195.162L243.872 196.026C243.804 196.152 243.784 196.299 243.816 196.439C243.848 196.579 243.929 196.702 244.045 196.787C244.11 196.833 244.185 196.865 244.263 196.88C244.342 196.895 244.423 196.893 244.5 196.875C244.578 196.857 244.651 196.823 244.715 196.775C244.779 196.726 244.832 196.665 244.87 196.595L245.747 195.014L249.011 194.669L248.371 195.872C248.305 196.001 248.289 196.151 248.328 196.291C248.368 196.431 248.458 196.551 248.582 196.627C248.598 196.696 248.634 196.758 248.686 196.805C248.737 196.853 248.802 196.883 248.871 196.893C248.941 196.903 249.012 196.891 249.074 196.86C249.137 196.828 249.189 196.778 249.222 196.717L250.445 194.515L252.608 194.285C253.006 194.245 253.39 194.116 253.732 193.909C254.074 193.702 254.365 193.422 254.586 193.088L254.944 192.55L248.32 191.859C248.32 191.859 244.026 191.469 243.354 189.357L246.662 183.174L246.694 183.091L251.283 182.592L252.288 181.261L247.891 180.179L248.192 179.456C248.198 179.441 248.199 179.424 248.195 179.408C248.19 179.392 248.18 179.379 248.166 179.37C248.153 179.361 248.136 179.357 248.12 179.358C248.103 179.36 248.088 179.367 248.077 179.379L247.437 180.019L244.39 176.506L243.52 178.125L245.357 182.099L245.242 182.214L241.664 187.52C240.992 188.083 239.744 188.8 238.707 187.622C237.133 185.914 232.992 179.251 232.992 179.251L232.582 180.269C232.32 180.935 232.32 181.676 232.582 182.342L233.312 184.262L232.32 186.112C232.252 186.238 232.232 186.385 232.264 186.525C232.296 186.665 232.377 186.789 232.493 186.874C232.56 186.918 232.635 186.949 232.714 186.963C232.793 186.977 232.874 186.975 232.952 186.956C233.03 186.938 233.104 186.903 233.168 186.855C233.232 186.806 233.285 186.745 233.325 186.675L233.837 185.754L234.912 188.563L233.965 190.406C233.896 190.534 233.876 190.683 233.909 190.824C233.942 190.966 234.026 191.09 234.144 191.174C234.21 191.219 234.285 191.249 234.364 191.264C234.442 191.278 234.523 191.275 234.6 191.257C234.678 191.238 234.751 191.204 234.815 191.155C234.878 191.107 234.931 191.046 234.97 190.976L235.52 190.08L237.158 194.349L234.182 199.821Z" fill="#141D23"/>
<path opacity="0.5" d="M114.605 56.7872H84.256V75.04H114.605V56.7872Z" fill="#141D23"/>
<path opacity="0.5" d="M98.9696 71.008C101.949 71.008 104.365 68.5925 104.365 65.6128C104.365 62.6331 101.949 60.2176 98.9696 60.2176C95.9899 60.2176 93.5744 62.6331 93.5744 65.6128C93.5744 68.5925 95.9899 71.008 98.9696 71.008Z" fill="#7E3232"/>
<path opacity="0.5" d="M102.886 65.6128L96.9536 62.1888V69.0368L102.886 65.6128Z" fill="#141D23"/>
<path opacity="0.5" d="M77.8368 178.97V193.28C77.2455 192.967 76.5857 192.807 75.9168 192.813C74.0608 192.813 72.5632 193.971 72.5632 195.373C72.5632 196.774 74.0608 197.965 75.9168 197.965C79.04 197.965 79.2704 195.827 79.2704 195.827V183.258L88.1792 181.978V191.578C87.5863 191.27 86.9272 191.112 86.2592 191.117C84.4032 191.117 82.9056 192.275 82.9056 193.709C82.9056 195.142 84.4032 196.269 86.2592 196.269C87.904 196.269 89.2736 195.341 89.5488 194.131L89.6 181.76V177.28L77.8368 178.97Z" fill="#141D23"/>
<path opacity="0.5" d="M174.752 48.64V46.9824C174.752 46.7091 174.643 46.4471 174.45 46.2538C174.257 46.0606 173.995 45.952 173.722 45.952H171.974C171.701 45.952 171.439 46.0606 171.246 46.2538C171.053 46.4471 170.944 46.7091 170.944 46.9824V52.9792H153.664V46.9824C153.664 46.7091 153.555 46.4471 153.362 46.2538C153.169 46.0606 152.907 45.952 152.634 45.952H150.771C150.501 45.9571 150.244 46.0678 150.055 46.2605C149.866 46.4532 149.76 46.7124 149.76 46.9824V48.64H147.014C146.704 48.64 146.406 48.7634 146.186 48.9831C145.967 49.2027 145.843 49.5006 145.843 49.8112V57.6C145.843 57.9112 145.966 58.2098 146.186 58.4305C146.405 58.6511 146.703 58.7759 147.014 58.7776H149.76V60.416C149.762 60.6838 149.867 60.9405 150.055 61.1316C150.242 61.3228 150.497 61.4334 150.765 61.44H152.627C152.9 61.44 153.163 61.3315 153.356 61.1382C153.549 60.945 153.658 60.6829 153.658 60.4096V55.68H170.938V60.3776C170.933 60.5161 170.957 60.6541 171.007 60.7833C171.057 60.9124 171.133 61.0301 171.23 61.1293C171.327 61.2285 171.443 61.3071 171.571 61.3605C171.698 61.4139 171.836 61.441 171.974 61.44H173.722C173.995 61.44 174.257 61.3315 174.45 61.1382C174.643 60.945 174.752 60.6829 174.752 60.4096V58.752H177.389C177.696 58.7504 177.99 58.6291 178.208 58.414C178.427 58.1988 178.553 57.9068 178.56 57.6V49.7984C178.557 49.49 178.432 49.1954 178.212 48.9785C177.993 48.7616 177.697 48.64 177.389 48.64H174.752Z" fill="#141D23"/>
<path opacity="0.2" d="M162.298 210.234C201.574 210.234 233.414 178.394 233.414 139.117C233.414 99.8401 201.574 68 162.298 68C123.021 68 91.1808 99.8401 91.1808 139.117C91.1808 178.394 123.021 210.234 162.298 210.234Z" fill="#7E3232"/>
<path d="M162.298 204.653C198.492 204.653 227.834 175.311 227.834 139.117C227.834 102.922 198.492 73.5808 162.298 73.5808C126.103 73.5808 96.7616 102.922 96.7616 139.117C96.7616 175.311 126.103 204.653 162.298 204.653Z" fill="#141D23" stroke="#7E3232" stroke-miterlimit="10"/>
<g opacity="0.2">
<path d="M162.298 141.261C162.012 141.263 161.728 141.207 161.465 141.097C161.201 140.987 160.962 140.825 160.762 140.621L119.539 98.2848C119.163 97.8737 118.961 97.3322 118.977 96.775C118.993 96.2179 119.226 95.6889 119.625 95.3002C120.025 94.9115 120.56 94.6937 121.117 94.6929C121.675 94.6921 122.211 94.9084 122.611 95.296L163.84 137.6C164.135 137.902 164.334 138.284 164.412 138.699C164.491 139.113 164.445 139.542 164.281 139.931C164.117 140.32 163.842 140.651 163.49 140.885C163.139 141.118 162.726 141.242 162.304 141.242L162.298 141.261Z" fill="#7E3232"/>
</g>
<path opacity="0.2" d="M143.808 153.632C143.347 153.634 142.897 153.488 142.526 153.214C142.154 152.94 141.881 152.554 141.747 152.113C141.613 151.671 141.624 151.199 141.78 150.764C141.935 150.33 142.227 149.958 142.611 149.702L161.107 137.331C161.58 137.032 162.151 136.929 162.698 137.045C163.246 137.161 163.726 137.487 164.037 137.952C164.348 138.417 164.464 138.986 164.362 139.536C164.259 140.086 163.946 140.574 163.488 140.896L144.998 153.267C144.646 153.504 144.232 153.63 143.808 153.632Z" fill="#7E3232"/>
<path d="M164.954 139.117C164.955 138.591 164.8 138.077 164.509 137.639C164.218 137.202 163.804 136.86 163.318 136.658C162.833 136.456 162.299 136.403 161.783 136.505C161.268 136.606 160.794 136.859 160.422 137.23C160.05 137.601 159.796 138.075 159.693 138.59C159.59 139.105 159.642 139.64 159.843 140.125C160.044 140.611 160.384 141.026 160.821 141.318C161.258 141.61 161.772 141.766 162.298 141.766C163.001 141.766 163.675 141.487 164.173 140.991C164.671 140.494 164.952 139.82 164.954 139.117Z" fill="#7E3232" stroke="#7E3232" stroke-miterlimit="10" stroke-linecap="round"/>
<path d="M162.349 79.4432V88.3008" stroke="#7E3232" stroke-width="2" stroke-miterlimit="10" stroke-linecap="round"/>
<path d="M162.349 189.242V198.099" stroke="#7E3232" stroke-width="2" stroke-miterlimit="10" stroke-linecap="round"/>
<path d="M221.677 138.771H212.813" stroke="#7E3232" stroke-width="2" stroke-miterlimit="10" stroke-linecap="round"/>
<path d="M111.878 138.771H103.021" stroke="#7E3232" stroke-width="2" stroke-miterlimit="10" stroke-linecap="round"/>
<path d="M193.459 88.256L188.813 95.8016" stroke="#7E3232" stroke-width="2" stroke-miterlimit="10" stroke-linecap="round"/>
<path d="M135.878 181.741L131.232 189.286" stroke="#7E3232" stroke-width="2" stroke-miterlimit="10" stroke-linecap="round"/>
<path d="M214.541 110.566L206.746 114.778" stroke="#7E3232" stroke-width="2" stroke-miterlimit="10" stroke-linecap="round"/>
<path d="M117.946 162.765L110.15 166.976" stroke="#7E3232" stroke-width="2" stroke-miterlimit="10" stroke-linecap="round"/>
<path d="M212.864 169.888L205.318 165.235" stroke="#7E3232" stroke-width="2" stroke-miterlimit="10" stroke-linecap="round"/>
<path d="M119.379 112.307L111.834 107.661" stroke="#7E3232" stroke-width="2" stroke-miterlimit="10" stroke-linecap="round"/>
<path d="M190.554 190.97L186.342 183.168" stroke="#7E3232" stroke-width="2" stroke-miterlimit="10" stroke-linecap="round"/>
<path d="M138.355 94.3744L134.144 86.5792" stroke="#7E3232" stroke-width="2" stroke-miterlimit="10" stroke-linecap="round"/>
<path d="M160.954 289.875C189.128 289.875 211.968 287.176 211.968 283.846C211.968 280.517 189.128 277.818 160.954 277.818C132.779 277.818 109.939 280.517 109.939 283.846C109.939 287.176 132.779 289.875 160.954 289.875Z" fill="#141D23"/>
<path opacity="0.5" d="M160.954 289.875C189.128 289.875 211.968 287.176 211.968 283.846C211.968 280.517 189.128 277.818 160.954 277.818C132.779 277.818 109.939 280.517 109.939 283.846C109.939 287.176 132.779 289.875 160.954 289.875Z" fill="#7E3232"/>
</svg>
