<svg width="219" height="143" viewBox="0 0 219 143" fill="none" xmlns="http://www.w3.org/2000/svg">
<g opacity="0.1">
<path d="M141.733 71.117C141.733 110.118 110.117 141.734 71.1172 141.734C32.1163 141.734 0.5 110.118 0.5 71.117C0.5 32.1162 32.1163 0.5 71.1172 0.5C110.117 0.5 141.733 32.1162 141.733 71.117Z" fill="#967043" stroke="#967043"/>
<path d="M71.1172 136.653C107.311 136.653 136.653 107.311 136.653 71.117C136.653 34.922 107.311 5.58081 71.1172 5.58081C34.9222 5.58081 5.58081 34.922 5.58081 71.117C5.58081 107.311 34.9222 136.653 71.1172 136.653Z" fill="#141D23" stroke="#967043" stroke-miterlimit="10"/>
<g opacity="0.2">
<path d="M70.2843 73.097C70.5473 73.207 70.8313 73.263 71.1173 73.261L71.1233 73.242C71.5453 73.242 71.9583 73.118 72.3093 72.885L70.2843 73.097ZM70.2843 73.097C70.0203 72.987 69.7813 72.825 69.5813 72.621L70.2843 73.097ZM72.6396 71.7367C72.514 72.0345 72.3034 72.2884 72.0328 72.4684C71.7642 72.6467 71.4475 72.742 71.1233 72.742H70.8547C70.7251 72.722 70.5982 72.6863 70.4772 72.6357L70.4766 72.6354C70.2747 72.5513 70.0918 72.4274 69.9386 72.2712C69.9385 72.2711 69.9384 72.271 69.9383 72.2709L28.7223 29.9419C28.4369 29.6271 28.2839 29.2139 28.2961 28.7893C28.3083 28.3626 28.4868 27.9569 28.793 27.6585C29.1 27.3603 29.5102 27.1935 29.937 27.1929C30.363 27.1923 30.7718 27.3565 31.0775 27.6504L72.3012 69.949L72.3016 69.9494C72.5278 70.1809 72.6802 70.4735 72.7399 70.7913L72.7402 70.7927C72.8005 71.1092 72.7655 71.438 72.6396 71.7367Z" fill="#967043" stroke="#967043"/>
</g>
<path opacity="0.2" d="M51.6423 84.8118L51.6418 84.8114C51.3564 84.6012 51.1473 84.3054 51.0447 83.9676C50.9417 83.6279 50.9504 83.2661 51.0699 82.9328L51.0701 82.9322C51.1886 82.6004 51.4123 82.3149 51.7076 82.118L51.7082 82.1176L70.1985 69.7504C70.5607 69.5233 70.9965 69.4457 71.4135 69.5341L71.4137 69.5342C71.8336 69.623 72.2019 69.8729 72.4407 70.23C72.6786 70.5857 72.7679 71.0218 72.6898 71.4441C72.611 71.8645 72.3726 72.2371 72.0241 72.4838L53.5392 84.8514L53.538 84.8522C53.2688 85.0335 52.9515 85.1304 52.6251 85.132C52.271 85.1335 51.9261 85.0214 51.6423 84.8118Z" fill="#967043" stroke="#967043"/>
<path d="M73.7732 71.117C73.7742 70.591 73.6193 70.077 73.3283 69.639C73.0373 69.202 72.6232 68.86 72.1372 68.658C71.6522 68.456 71.1183 68.403 70.6023 68.505C70.0873 68.606 69.6133 68.859 69.2413 69.23C68.8693 69.601 68.6152 70.075 68.5122 70.59C68.4092 71.105 68.4613 71.64 68.6623 72.125C68.8633 72.611 69.2033 73.026 69.6403 73.318C70.0773 73.61 70.5913 73.766 71.1173 73.766C71.8203 73.766 72.4943 73.487 72.9923 72.991C73.4903 72.494 73.7712 71.82 73.7732 71.117Z" fill="#967043" stroke="#967043" stroke-miterlimit="10" stroke-linecap="round"/>
<path d="M71.1682 11.4432V20.3008" stroke="#967043" stroke-width="2" stroke-miterlimit="10" stroke-linecap="round"/>
<path d="M71.1682 121.242V130.099" stroke="#967043" stroke-width="2" stroke-miterlimit="10" stroke-linecap="round"/>
<path d="M130.496 70.771H121.632" stroke="#967043" stroke-width="2" stroke-miterlimit="10" stroke-linecap="round"/>
<path d="M20.6973 70.771H11.8403" stroke="#967043" stroke-width="2" stroke-miterlimit="10" stroke-linecap="round"/>
<path d="M102.278 20.256L97.6323 27.8016" stroke="#967043" stroke-width="2" stroke-miterlimit="10" stroke-linecap="round"/>
<path d="M44.6973 113.741L40.0513 121.286" stroke="#967043" stroke-width="2" stroke-miterlimit="10" stroke-linecap="round"/>
<path d="M123.36 42.566L115.565 46.778" stroke="#967043" stroke-width="2" stroke-miterlimit="10" stroke-linecap="round"/>
<path d="M26.7652 94.765L18.9692 98.976" stroke="#967043" stroke-width="2" stroke-miterlimit="10" stroke-linecap="round"/>
<path d="M121.683 101.888L114.137 97.235" stroke="#967043" stroke-width="2" stroke-miterlimit="10" stroke-linecap="round"/>
<path d="M28.1983 44.307L20.6533 39.661" stroke="#967043" stroke-width="2" stroke-miterlimit="10" stroke-linecap="round"/>
<path d="M99.3731 122.97L95.1611 115.168" stroke="#967043" stroke-width="2" stroke-miterlimit="10" stroke-linecap="round"/>
<path d="M47.1741 26.3744L42.9631 18.5792" stroke="#967043" stroke-width="2" stroke-miterlimit="10" stroke-linecap="round"/>
</g>
<g opacity="0.25">
<path d="M160.733 71.117C160.733 110.118 129.117 141.734 90.1172 141.734C51.1163 141.734 19.5 110.118 19.5 71.117C19.5 32.1162 51.1163 0.5 90.1172 0.5C129.117 0.5 160.733 32.1162 160.733 71.117Z" fill="#967043" stroke="#967043"/>
<path d="M90.1172 136.653C126.311 136.653 155.653 107.311 155.653 71.117C155.653 34.922 126.311 5.58081 90.1172 5.58081C53.9222 5.58081 24.5808 34.922 24.5808 71.117C24.5808 107.311 53.9222 136.653 90.1172 136.653Z" fill="#141D23" stroke="#967043" stroke-miterlimit="10"/>
<g opacity="0.2">
<path d="M89.2843 73.097C89.5473 73.207 89.8313 73.263 90.1173 73.261L90.1233 73.242C90.5453 73.242 90.9583 73.118 91.3093 72.885L89.2843 73.097ZM89.2843 73.097C89.0203 72.987 88.7813 72.825 88.5813 72.621L89.2843 73.097ZM91.6396 71.7367C91.514 72.0345 91.3034 72.2884 91.0328 72.4684C90.7642 72.6467 90.4475 72.742 90.1233 72.742H89.8547C89.7251 72.722 89.5982 72.6863 89.4772 72.6357L89.4766 72.6354C89.2747 72.5513 89.0918 72.4274 88.9386 72.2712C88.9385 72.2711 88.9384 72.271 88.9383 72.2709L47.7223 29.9419C47.4369 29.6271 47.2839 29.2139 47.2961 28.7893C47.3083 28.3626 47.4868 27.9569 47.793 27.6585C48.1 27.3603 48.5102 27.1935 48.937 27.1929C49.363 27.1923 49.7718 27.3565 50.0775 27.6504L91.3012 69.949L91.3016 69.9494C91.5278 70.1809 91.6802 70.4735 91.7399 70.7913L91.7402 70.7927C91.8005 71.1092 91.7655 71.438 91.6396 71.7367Z" fill="#967043" stroke="#967043"/>
</g>
<path opacity="0.2" d="M70.6423 84.8118L70.6418 84.8114C70.3564 84.6012 70.1473 84.3054 70.0447 83.9676C69.9417 83.6279 69.9504 83.2661 70.0699 82.9328L70.0701 82.9322C70.1886 82.6004 70.4123 82.3149 70.7076 82.118L70.7082 82.1176L89.1985 69.7504C89.5607 69.5233 89.9965 69.4457 90.4135 69.5341L90.4137 69.5342C90.8336 69.623 91.2019 69.8729 91.4407 70.23C91.6786 70.5857 91.7679 71.0218 91.6898 71.4441C91.611 71.8645 91.3726 72.2371 91.0241 72.4838L72.5392 84.8514L72.538 84.8522C72.2688 85.0335 71.9515 85.1304 71.6251 85.132C71.271 85.1335 70.9261 85.0214 70.6423 84.8118Z" fill="#967043" stroke="#967043"/>
<path d="M92.7732 71.117C92.7742 70.591 92.6193 70.077 92.3283 69.639C92.0373 69.202 91.6232 68.86 91.1372 68.658C90.6522 68.456 90.1183 68.403 89.6023 68.505C89.0873 68.606 88.6133 68.859 88.2413 69.23C87.8693 69.601 87.6152 70.075 87.5122 70.59C87.4092 71.105 87.4613 71.64 87.6623 72.125C87.8633 72.611 88.2033 73.026 88.6403 73.318C89.0773 73.61 89.5913 73.766 90.1173 73.766C90.8203 73.766 91.4943 73.487 91.9923 72.991C92.4903 72.494 92.7712 71.82 92.7732 71.117Z" fill="#967043" stroke="#967043" stroke-miterlimit="10" stroke-linecap="round"/>
<path d="M90.1682 11.4432V20.3008" stroke="#967043" stroke-width="2" stroke-miterlimit="10" stroke-linecap="round"/>
<path d="M90.1682 121.242V130.099" stroke="#967043" stroke-width="2" stroke-miterlimit="10" stroke-linecap="round"/>
<path d="M149.496 70.771H140.632" stroke="#967043" stroke-width="2" stroke-miterlimit="10" stroke-linecap="round"/>
<path d="M39.6973 70.771H30.8403" stroke="#967043" stroke-width="2" stroke-miterlimit="10" stroke-linecap="round"/>
<path d="M121.278 20.256L116.632 27.8016" stroke="#967043" stroke-width="2" stroke-miterlimit="10" stroke-linecap="round"/>
<path d="M63.6973 113.741L59.0513 121.286" stroke="#967043" stroke-width="2" stroke-miterlimit="10" stroke-linecap="round"/>
<path d="M142.36 42.566L134.565 46.778" stroke="#967043" stroke-width="2" stroke-miterlimit="10" stroke-linecap="round"/>
<path d="M45.7652 94.765L37.9692 98.976" stroke="#967043" stroke-width="2" stroke-miterlimit="10" stroke-linecap="round"/>
<path d="M140.683 101.888L133.137 97.235" stroke="#967043" stroke-width="2" stroke-miterlimit="10" stroke-linecap="round"/>
<path d="M47.1983 44.307L39.6533 39.661" stroke="#967043" stroke-width="2" stroke-miterlimit="10" stroke-linecap="round"/>
<path d="M118.373 122.97L114.161 115.168" stroke="#967043" stroke-width="2" stroke-miterlimit="10" stroke-linecap="round"/>
<path d="M66.1741 26.3744L61.9631 18.5792" stroke="#967043" stroke-width="2" stroke-miterlimit="10" stroke-linecap="round"/>
</g>
<g opacity="0.5">
<path d="M179.733 71.117C179.733 110.118 148.117 141.734 109.117 141.734C70.1163 141.734 38.5 110.118 38.5 71.117C38.5 32.1162 70.1163 0.5 109.117 0.5C148.117 0.5 179.733 32.1162 179.733 71.117Z" fill="#967043" stroke="#967043"/>
<path d="M109.117 136.653C145.311 136.653 174.653 107.311 174.653 71.117C174.653 34.922 145.311 5.58081 109.117 5.58081C72.9222 5.58081 43.5808 34.922 43.5808 71.117C43.5808 107.311 72.9222 136.653 109.117 136.653Z" fill="#141D23" stroke="#967043" stroke-miterlimit="10"/>
<g opacity="0.2">
<path d="M108.284 73.097C108.547 73.207 108.831 73.263 109.117 73.261L109.123 73.242C109.545 73.242 109.958 73.118 110.309 72.885L108.284 73.097ZM108.284 73.097C108.02 72.987 107.781 72.825 107.581 72.621L108.284 73.097ZM110.64 71.7367C110.514 72.0345 110.303 72.2884 110.033 72.4684C109.764 72.6467 109.447 72.742 109.123 72.742H108.855C108.725 72.722 108.598 72.6863 108.477 72.6357L108.477 72.6354C108.275 72.5513 108.092 72.4274 107.939 72.2712C107.938 72.2711 107.938 72.271 107.938 72.2709L66.7223 29.9419C66.4369 29.6271 66.2839 29.2139 66.2961 28.7893C66.3083 28.3626 66.4868 27.9569 66.793 27.6585C67.1 27.3603 67.5102 27.1935 67.937 27.1929C68.363 27.1923 68.7718 27.3565 69.0775 27.6504L110.301 69.949L110.302 69.9494C110.528 70.1809 110.68 70.4735 110.74 70.7913L110.74 70.7927C110.801 71.1092 110.766 71.438 110.64 71.7367Z" fill="#967043" stroke="#967043"/>
</g>
<path opacity="0.2" d="M89.6423 84.8118L89.6418 84.8114C89.3564 84.6012 89.1473 84.3054 89.0447 83.9676C88.9417 83.6279 88.9504 83.2661 89.0699 82.9328L89.0701 82.9322C89.1886 82.6004 89.4123 82.3149 89.7076 82.118L89.7082 82.1176L108.199 69.7504C108.561 69.5233 108.997 69.4457 109.414 69.5341L109.414 69.5342C109.834 69.623 110.202 69.8729 110.441 70.23C110.679 70.5857 110.768 71.0218 110.69 71.4441C110.611 71.8645 110.373 72.2371 110.024 72.4838L91.5392 84.8514L91.538 84.8522C91.2688 85.0335 90.9515 85.1304 90.6251 85.132C90.271 85.1335 89.9261 85.0214 89.6423 84.8118Z" fill="#967043" stroke="#967043"/>
<path d="M111.773 71.117C111.774 70.591 111.619 70.077 111.328 69.639C111.037 69.202 110.623 68.86 110.137 68.658C109.652 68.456 109.118 68.403 108.602 68.505C108.087 68.606 107.613 68.859 107.241 69.23C106.869 69.601 106.615 70.075 106.512 70.59C106.409 71.105 106.461 71.64 106.662 72.125C106.863 72.611 107.203 73.026 107.64 73.318C108.077 73.61 108.591 73.766 109.117 73.766C109.82 73.766 110.494 73.487 110.992 72.991C111.49 72.494 111.771 71.82 111.773 71.117Z" fill="#967043" stroke="#967043" stroke-miterlimit="10" stroke-linecap="round"/>
<path d="M109.168 11.4432V20.3008" stroke="#967043" stroke-width="2" stroke-miterlimit="10" stroke-linecap="round"/>
<path d="M109.168 121.242V130.099" stroke="#967043" stroke-width="2" stroke-miterlimit="10" stroke-linecap="round"/>
<path d="M168.496 70.771H159.632" stroke="#967043" stroke-width="2" stroke-miterlimit="10" stroke-linecap="round"/>
<path d="M58.6973 70.771H49.8403" stroke="#967043" stroke-width="2" stroke-miterlimit="10" stroke-linecap="round"/>
<path d="M140.278 20.256L135.632 27.8016" stroke="#967043" stroke-width="2" stroke-miterlimit="10" stroke-linecap="round"/>
<path d="M82.6973 113.741L78.0513 121.286" stroke="#967043" stroke-width="2" stroke-miterlimit="10" stroke-linecap="round"/>
<path d="M161.36 42.566L153.565 46.778" stroke="#967043" stroke-width="2" stroke-miterlimit="10" stroke-linecap="round"/>
<path d="M64.7652 94.765L56.9692 98.976" stroke="#967043" stroke-width="2" stroke-miterlimit="10" stroke-linecap="round"/>
<path d="M159.683 101.888L152.137 97.235" stroke="#967043" stroke-width="2" stroke-miterlimit="10" stroke-linecap="round"/>
<path d="M66.1983 44.307L58.6533 39.661" stroke="#967043" stroke-width="2" stroke-miterlimit="10" stroke-linecap="round"/>
<path d="M137.373 122.97L133.161 115.168" stroke="#967043" stroke-width="2" stroke-miterlimit="10" stroke-linecap="round"/>
<path d="M85.1741 26.3744L80.9631 18.5792" stroke="#967043" stroke-width="2" stroke-miterlimit="10" stroke-linecap="round"/>
</g>
<g opacity="0.75">
<path d="M198.733 71.117C198.733 110.118 167.117 141.734 128.117 141.734C89.1163 141.734 57.5 110.118 57.5 71.117C57.5 32.1162 89.1163 0.5 128.117 0.5C167.117 0.5 198.733 32.1162 198.733 71.117Z" fill="#967043" stroke="#967043"/>
<path d="M128.117 136.653C164.311 136.653 193.653 107.311 193.653 71.117C193.653 34.922 164.311 5.58081 128.117 5.58081C91.9222 5.58081 62.5808 34.922 62.5808 71.117C62.5808 107.311 91.9222 136.653 128.117 136.653Z" fill="#141D23" stroke="#967043" stroke-miterlimit="10"/>
<g opacity="0.2">
<path d="M127.284 73.097C127.547 73.207 127.831 73.263 128.117 73.261L128.123 73.242C128.545 73.242 128.958 73.118 129.309 72.885L127.284 73.097ZM127.284 73.097C127.02 72.987 126.781 72.825 126.581 72.621L127.284 73.097ZM129.64 71.7367C129.514 72.0345 129.303 72.2884 129.033 72.4684C128.764 72.6467 128.447 72.742 128.123 72.742H127.855C127.725 72.722 127.598 72.6863 127.477 72.6357L127.477 72.6354C127.275 72.5513 127.092 72.4274 126.939 72.2712C126.938 72.2711 126.938 72.271 126.938 72.2709L85.7223 29.9419C85.4369 29.6271 85.2839 29.2139 85.2961 28.7893C85.3083 28.3626 85.4868 27.9569 85.793 27.6585C86.1 27.3603 86.5102 27.1935 86.937 27.1929C87.363 27.1923 87.7718 27.3565 88.0775 27.6504L129.301 69.949L129.302 69.9494C129.528 70.1809 129.68 70.4735 129.74 70.7913L129.74 70.7927C129.801 71.1092 129.766 71.438 129.64 71.7367Z" fill="#967043" stroke="#967043"/>
</g>
<path opacity="0.2" d="M108.642 84.8118L108.642 84.8114C108.356 84.6012 108.147 84.3054 108.045 83.9676C107.942 83.6279 107.95 83.2661 108.07 82.9328L108.07 82.9322C108.189 82.6004 108.412 82.3149 108.708 82.118L108.708 82.1176L127.199 69.7504C127.561 69.5233 127.997 69.4457 128.414 69.5341L128.414 69.5342C128.834 69.623 129.202 69.8729 129.441 70.23C129.679 70.5857 129.768 71.0218 129.69 71.4441C129.611 71.8645 129.373 72.2371 129.024 72.4838L110.539 84.8514L110.538 84.8522C110.269 85.0335 109.951 85.1304 109.625 85.132C109.271 85.1335 108.926 85.0214 108.642 84.8118Z" fill="#967043" stroke="#967043"/>
<path d="M130.773 71.117C130.774 70.591 130.619 70.077 130.328 69.639C130.037 69.202 129.623 68.86 129.137 68.658C128.652 68.456 128.118 68.403 127.602 68.505C127.087 68.606 126.613 68.859 126.241 69.23C125.869 69.601 125.615 70.075 125.512 70.59C125.409 71.105 125.461 71.64 125.662 72.125C125.863 72.611 126.203 73.026 126.64 73.318C127.077 73.61 127.591 73.766 128.117 73.766C128.82 73.766 129.494 73.487 129.992 72.991C130.49 72.494 130.771 71.82 130.773 71.117Z" fill="#967043" stroke="#967043" stroke-miterlimit="10" stroke-linecap="round"/>
<path d="M128.168 11.4432V20.3008" stroke="#967043" stroke-width="2" stroke-miterlimit="10" stroke-linecap="round"/>
<path d="M128.168 121.242V130.099" stroke="#967043" stroke-width="2" stroke-miterlimit="10" stroke-linecap="round"/>
<path d="M187.496 70.771H178.632" stroke="#967043" stroke-width="2" stroke-miterlimit="10" stroke-linecap="round"/>
<path d="M77.6973 70.771H68.8403" stroke="#967043" stroke-width="2" stroke-miterlimit="10" stroke-linecap="round"/>
<path d="M159.278 20.256L154.632 27.8016" stroke="#967043" stroke-width="2" stroke-miterlimit="10" stroke-linecap="round"/>
<path d="M101.697 113.741L97.0513 121.286" stroke="#967043" stroke-width="2" stroke-miterlimit="10" stroke-linecap="round"/>
<path d="M180.36 42.566L172.565 46.778" stroke="#967043" stroke-width="2" stroke-miterlimit="10" stroke-linecap="round"/>
<path d="M83.7652 94.765L75.9692 98.976" stroke="#967043" stroke-width="2" stroke-miterlimit="10" stroke-linecap="round"/>
<path d="M178.683 101.888L171.137 97.235" stroke="#967043" stroke-width="2" stroke-miterlimit="10" stroke-linecap="round"/>
<path d="M85.1983 44.307L77.6533 39.661" stroke="#967043" stroke-width="2" stroke-miterlimit="10" stroke-linecap="round"/>
<path d="M156.373 122.97L152.161 115.168" stroke="#967043" stroke-width="2" stroke-miterlimit="10" stroke-linecap="round"/>
<path d="M104.174 26.3744L99.9631 18.5792" stroke="#967043" stroke-width="2" stroke-miterlimit="10" stroke-linecap="round"/>
</g>
<path d="M217.733 71.117C217.733 110.118 186.117 141.734 147.117 141.734C108.116 141.734 76.5 110.118 76.5 71.117C76.5 32.1162 108.116 0.5 147.117 0.5C186.117 0.5 217.733 32.1162 217.733 71.117Z" fill="#967043" stroke="#967043"/>
<path d="M147.117 136.653C183.311 136.653 212.653 107.311 212.653 71.117C212.653 34.922 183.311 5.58081 147.117 5.58081C110.922 5.58081 81.5808 34.922 81.5808 71.117C81.5808 107.311 110.922 136.653 147.117 136.653Z" fill="#141D23" stroke="#967043" stroke-miterlimit="10"/>
<g opacity="0.2">
<path d="M146.284 73.097C146.547 73.207 146.831 73.263 147.117 73.261L147.123 73.242C147.545 73.242 147.958 73.118 148.309 72.885L146.284 73.097ZM146.284 73.097C146.02 72.987 145.781 72.825 145.581 72.621L146.284 73.097ZM148.64 71.7367C148.514 72.0345 148.303 72.2884 148.033 72.4684C147.764 72.6467 147.447 72.742 147.123 72.742H146.855C146.725 72.722 146.598 72.6863 146.477 72.6357L146.477 72.6354C146.275 72.5513 146.092 72.4274 145.939 72.2712C145.938 72.2711 145.938 72.271 145.938 72.2709L104.722 29.9419C104.437 29.6271 104.284 29.2139 104.296 28.7893C104.308 28.3626 104.487 27.9569 104.793 27.6585C105.1 27.3603 105.51 27.1935 105.937 27.1929C106.363 27.1923 106.772 27.3565 107.078 27.6504L148.301 69.949L148.302 69.9494C148.528 70.1809 148.68 70.4735 148.74 70.7913L148.74 70.7927C148.801 71.1092 148.766 71.438 148.64 71.7367Z" fill="#967043" stroke="#967043"/>
</g>
<path opacity="0.2" d="M127.642 84.8118L127.642 84.8114C127.356 84.6012 127.147 84.3054 127.045 83.9676C126.942 83.6279 126.95 83.2661 127.07 82.9328L127.07 82.9322C127.189 82.6004 127.412 82.3149 127.708 82.118L127.708 82.1176L146.199 69.7504C146.561 69.5233 146.997 69.4457 147.414 69.5341L147.414 69.5342C147.834 69.623 148.202 69.8729 148.441 70.23C148.679 70.5857 148.768 71.0218 148.69 71.4441C148.611 71.8645 148.373 72.2371 148.024 72.4838L129.539 84.8514L129.538 84.8522C129.269 85.0335 128.951 85.1304 128.625 85.132C128.271 85.1335 127.926 85.0214 127.642 84.8118Z" fill="#967043" stroke="#967043"/>
<path d="M149.773 71.117C149.774 70.591 149.619 70.077 149.328 69.639C149.037 69.202 148.623 68.86 148.137 68.658C147.652 68.456 147.118 68.403 146.602 68.505C146.087 68.606 145.613 68.859 145.241 69.23C144.869 69.601 144.615 70.075 144.512 70.59C144.409 71.105 144.461 71.64 144.662 72.125C144.863 72.611 145.203 73.026 145.64 73.318C146.077 73.61 146.591 73.766 147.117 73.766C147.82 73.766 148.494 73.487 148.992 72.991C149.49 72.494 149.771 71.82 149.773 71.117Z" fill="#967043" stroke="#967043" stroke-miterlimit="10" stroke-linecap="round"/>
<path d="M147.168 11.4432V20.3008" stroke="#967043" stroke-width="2" stroke-miterlimit="10" stroke-linecap="round"/>
<path d="M147.168 121.242V130.099" stroke="#967043" stroke-width="2" stroke-miterlimit="10" stroke-linecap="round"/>
<path d="M206.496 70.771H197.632" stroke="#967043" stroke-width="2" stroke-miterlimit="10" stroke-linecap="round"/>
<path d="M96.6973 70.771H87.8403" stroke="#967043" stroke-width="2" stroke-miterlimit="10" stroke-linecap="round"/>
<path d="M178.278 20.256L173.632 27.8016" stroke="#967043" stroke-width="2" stroke-miterlimit="10" stroke-linecap="round"/>
<path d="M120.697 113.741L116.051 121.286" stroke="#967043" stroke-width="2" stroke-miterlimit="10" stroke-linecap="round"/>
<path d="M199.36 42.566L191.565 46.778" stroke="#967043" stroke-width="2" stroke-miterlimit="10" stroke-linecap="round"/>
<path d="M102.765 94.765L94.9692 98.976" stroke="#967043" stroke-width="2" stroke-miterlimit="10" stroke-linecap="round"/>
<path d="M197.683 101.888L190.137 97.235" stroke="#967043" stroke-width="2" stroke-miterlimit="10" stroke-linecap="round"/>
<path d="M104.198 44.307L96.6533 39.661" stroke="#967043" stroke-width="2" stroke-miterlimit="10" stroke-linecap="round"/>
<path d="M175.373 122.97L171.161 115.168" stroke="#967043" stroke-width="2" stroke-miterlimit="10" stroke-linecap="round"/>
<path d="M123.174 26.3744L118.963 18.5792" stroke="#967043" stroke-width="2" stroke-miterlimit="10" stroke-linecap="round"/>
</svg>
