<svg width="20" height="23" viewBox="0 0 20 23" fill="none" xmlns="http://www.w3.org/2000/svg">
<path d="M19.4643 7.14286H0.535714C0.239866 7.14286 0 6.90299 0 6.60714V5C0 3.81652 0.959375 2.85714 2.14286 2.85714H4.28571V0.535714C4.28571 0.239866 4.52558 0 4.82143 0H6.60714C6.90299 0 7.14286 0.239866 7.14286 0.535714V2.85714H12.8571V0.535714C12.8571 0.239866 13.097 0 13.3929 0H15.1786C15.4744 0 15.7143 0.239866 15.7143 0.535714V2.85714H17.8571C19.0406 2.85714 20 3.81652 20 5V6.60714C20 6.90299 19.7601 7.14286 19.4643 7.14286ZM0.535714 8.57143H19.4643C19.7601 8.57143 20 8.81129 20 9.10714V20.7143C20 21.8978 19.0406 22.8571 17.8571 22.8571H2.14286C0.959375 22.8571 0 21.8978 0 20.7143V9.10714C0 8.81129 0.239866 8.57143 0.535714 8.57143ZM15.415 12.8548L14.1575 11.587C13.9491 11.377 13.6099 11.3756 13.3999 11.584L8.66607 16.2797L6.61339 14.2104C6.40504 14.0004 6.0658 13.999 5.85576 14.2074L4.58804 15.465C4.37799 15.6733 4.37661 16.0125 4.585 16.2225L8.27254 19.9399C8.48089 20.15 8.82009 20.1513 9.03013 19.9429L15.412 13.6124C15.622 13.404 15.6234 13.0648 15.415 12.8548Z" fill="#7E3232"/>
</svg>
