<svg width="40" height="45" viewBox="0 0 40 45" fill="none" xmlns="http://www.w3.org/2000/svg">
<path d="M37.7777 13.3864L24.4445 1.69761C23.2222 0.604389 21.6399 0 20.0001 0C18.3602 0 16.7779 0.604389 15.5557 1.69761L2.22242 13.3864C1.51657 14.0177 0.953315 14.7921 0.570144 15.6581C0.186973 16.524 -0.00731675 17.4617 0.000210652 18.4086V37.8307C0.000210652 39.5988 0.702585 41.2945 1.95282 42.5447C3.20305 43.7949 4.89873 44.4973 6.66683 44.4973H33.3333C35.1014 44.4973 36.7971 43.7949 38.0473 42.5447C39.2976 41.2945 39.9999 39.5988 39.9999 37.8307V18.3864C40.0043 17.4432 39.8085 16.5098 39.4254 15.6479C39.0423 14.786 38.4807 14.0152 37.7777 13.3864ZM24.4445 40.0529H15.5557V28.9419C15.5557 28.3525 15.7898 27.7873 16.2065 27.3705C16.6233 26.9538 17.1885 26.7197 17.7779 26.7197H22.2223C22.8116 26.7197 23.3769 26.9538 23.7936 27.3705C24.2104 27.7873 24.4445 28.3525 24.4445 28.9419V40.0529ZM35.5555 37.8307C35.5555 38.4201 35.3214 38.9853 34.9046 39.402C34.4879 39.8188 33.9227 40.0529 33.3333 40.0529H28.8889V28.9419C28.8889 27.1738 28.1865 25.4781 26.9363 24.2279C25.6861 22.9776 23.9904 22.2752 22.2223 22.2752H17.7779C16.0098 22.2752 14.3141 22.9776 13.0638 24.2279C11.8136 25.4781 11.1112 27.1738 11.1112 28.9419V40.0529H6.66683C6.07746 40.0529 5.51224 39.8188 5.09549 39.402C4.67875 38.9853 4.44462 38.4201 4.44462 37.8307V18.3864C4.44502 18.0709 4.51261 17.759 4.64288 17.4717C4.77316 17.1843 4.96313 16.928 5.20017 16.7197L18.5334 5.05315C18.9389 4.69688 19.4603 4.50041 20.0001 4.50041C20.5399 4.50041 21.0612 4.69688 21.4667 5.05315L34.8 16.7197C35.037 16.928 35.227 17.1843 35.3573 17.4717C35.4875 17.759 35.5551 18.0709 35.5555 18.3864V37.8307Z" fill="#7D3232"/>
</svg>
