<svg width="25" height="25" viewBox="0 0 25 25" fill="none" xmlns="http://www.w3.org/2000/svg">
<path d="M8.03571 25H2.67857C1.19978 25 0 23.8002 0 22.3214V2.67857C0 1.19978 1.19978 0 2.67857 0H8.03571C9.51451 0 10.7143 1.19978 10.7143 2.67857V22.3214C10.7143 23.8002 9.51451 25 8.03571 25ZM25 22.3214V2.67857C25 1.19978 23.8002 0 22.3214 0H16.9643C15.4855 0 14.2857 1.19978 14.2857 2.67857V22.3214C14.2857 23.8002 15.4855 25 16.9643 25H22.3214C23.8002 25 25 23.8002 25 22.3214Z" fill="#E1E1E1"/>
</svg>
