<svg width="12" height="20" viewBox="0 0 12 20" fill="none" xmlns="http://www.w3.org/2000/svg">
<path d="M12 10C12 9.61582 11.8466 9.28814 11.528 8.99435L2.32448 0.372882C2.0767 0.124294 1.74631 3.74857e-07 1.36873 3.74857e-07C0.60177 3.74857e-07 -4.28874e-07 0.564972 -4.28874e-07 1.31073C-4.28874e-07 1.67232 0.153392 2 0.412979 2.24859L8.70796 10L0.412979 17.7514C0.153392 18.0113 -4.28874e-07 18.339 -4.28874e-07 18.7006C-4.28874e-07 19.435 0.60177 20 1.36873 20C1.74631 20 2.0767 19.8757 2.32448 19.6271L11.528 11.0056C11.8466 10.7119 11.9882 10.3842 12 10Z" fill="#27374D"/>
</svg>
