<svg width="20" height="27" viewBox="0 0 20 27" fill="none" xmlns="http://www.w3.org/2000/svg">
<path d="M18.75 27H1.25C0.559635 27 0 26.4404 0 25.75V24.9167C0 24.2263 0.559635 23.6667 1.25 23.6667C1.25 18.9289 3.90708 14.9305 7.54385 13.6667C3.90708 12.4028 1.25 8.40443 1.25 3.66667C0.559635 3.66667 0 3.10703 0 2.41667V1.58333C0 0.892969 0.559635 0.333334 1.25 0.333334H18.75C19.4404 0.333334 20 0.892969 20 1.58333V2.41667C20 3.10703 19.4404 3.66667 18.75 3.66667C18.75 8.40443 16.0929 12.4028 12.4561 13.6667C16.0929 14.9305 18.75 18.9289 18.75 23.6667C19.4404 23.6667 20 24.2263 20 24.9167V25.75C20 26.4404 19.4404 27 18.75 27ZM15.4167 3.66667H4.58333C4.58333 7.70094 6.98979 11.1667 10 11.1667C13.0097 11.1667 15.4167 7.70224 15.4167 3.66667Z" fill="#7E3232"/>
</svg>
