<svg width="25" height="27" viewBox="0 0 25 27" fill="none" xmlns="http://www.w3.org/2000/svg">
<path d="M24.6807 16.1956L24.0471 15.8298C23.0825 15.2727 22.6075 14.1663 22.6075 13.0523C22.6075 11.9384 23.0825 10.832 24.0471 10.2749L24.6807 9.90905C24.9387 9.76162 25.0545 9.45625 24.9703 9.17193C24.3858 7.29754 23.3907 5.60216 22.0902 4.1911C21.8902 3.97523 21.5637 3.92258 21.311 4.07001L20.6777 4.43568C19.7136 4.99243 18.5186 4.84794 17.5545 4.29123C16.5902 3.73443 15.8668 2.77151 15.8668 1.658V0.93198C15.8668 0.637132 15.6615 0.37914 15.3719 0.315958C13.4396 -0.115784 11.4599 -0.0947232 9.62237 0.315958C9.33279 0.37914 9.12745 0.637132 9.12745 0.93198V1.66438C9.12745 2.77839 8.40892 3.7432 7.44416 4.30022C6.47916 4.85736 5.28204 4.99762 4.31766 4.43941L3.68855 4.07527C3.43056 3.92785 3.10939 3.97523 2.90931 4.19637C1.60882 5.60216 0.613711 7.29754 0.0292805 9.17719C-0.0602269 9.46151 0.0608713 9.76689 0.318863 9.91431L0.952439 10.2802C1.91708 10.8372 2.39201 11.9437 2.39201 13.0576C2.39201 14.1715 1.91708 15.278 0.952438 15.835L0.318863 16.2009C0.0608713 16.3483 -0.0549618 16.6537 0.0292805 16.938C0.613711 18.8124 1.60882 20.5078 2.90931 21.9188C3.10939 22.1347 3.43583 22.1874 3.68855 22.0399L4.3218 21.6743C5.28593 21.1175 6.48094 21.262 7.44509 21.8187C8.40938 22.3755 9.13271 23.3384 9.13271 24.4519V25.1832C9.13271 25.4781 9.33805 25.7361 9.62764 25.7993C11.5599 26.231 13.5396 26.2099 15.3772 25.7993C15.6668 25.7361 15.8721 25.4781 15.8721 25.1832V24.4518C15.8721 23.3372 16.591 22.3719 17.5563 21.8145C18.5209 21.2574 19.7173 21.1166 20.682 21.6737L21.3163 22.0399C21.5742 22.1874 21.8954 22.14 22.0955 21.9188C23.396 20.513 24.3911 18.8177 24.9755 16.938C25.0545 16.6484 24.9387 16.3431 24.6807 16.1956ZM12.4971 17.2645C10.1752 17.2645 8.28502 15.3743 8.28502 13.0523C8.28502 10.7304 10.1752 8.84022 12.4971 8.84022C14.8191 8.84022 16.7093 10.7304 16.7093 13.0523C16.7093 15.3743 14.8191 17.2645 12.4971 17.2645Z" fill="#7E3232"/>
</svg>
