<svg width="25" height="30" viewBox="0 0 25 30" fill="none" xmlns="http://www.w3.org/2000/svg">
<path d="M6.08203 28.4066C5.91926 28.353 5.80738 28.321 5.69867 28.2804C4.91145 27.987 4.58447 27.4395 4.81489 26.804C5.0475 26.1625 5.62731 25.9268 6.42156 26.1918C13.0233 28.3949 19.6921 24.9191 21.9943 18.8637C24.9716 11.0327 19.2443 2.46443 10.8694 2.22555C10.5512 2.21647 10.2053 2.18406 9.92528 2.05104C9.46036 1.83021 9.25333 1.39764 9.37057 0.887259C9.50795 0.289158 9.92059 0.00226228 10.5387 8.86996e-05C12.5934 -0.00713684 14.5545 0.427171 16.4213 1.27192C22.1364 3.85798 25.6349 9.73939 24.9039 16.0359C24.1243 22.7509 19.3203 27.7918 12.8892 28.8789C10.6089 29.2644 8.34947 29.1181 6.08203 28.4066Z" fill="#7E3232"/>
<path d="M9.61392 3.71724C9.8931 3.51223 10.227 3.51012 10.4564 3.51223C12.0109 3.52653 13.4722 3.85596 14.9292 4.48773C16.6367 5.22811 17.9592 6.36609 19.1079 7.74151C21.0023 10.01 21.7087 12.6827 21.442 15.5912C21.1859 18.3836 19.9901 20.7557 17.9256 22.6634C14.0336 26.2596 8.20956 26.5303 4.01919 23.5176C2.33849 22.3093 1.0821 20.7416 0.264682 18.8325C0.200986 18.6837 0.163939 18.5237 0.103768 18.3732C-0.117454 17.82 0.0150456 17.3291 0.501207 17.0343C1.05253 16.6999 1.84923 16.9897 2.1319 17.5545C2.41118 18.1126 2.62343 18.7112 2.95558 19.2346C4.69052 21.9685 7.22846 23.2829 10.4341 23.3746C14.6686 23.4958 18.1239 20.2686 18.9761 16.8863C19.8085 13.5822 19.0488 10.68 16.6509 8.25687C15.0099 6.59856 12.8047 5.80215 10.4564 5.74132C9.41481 5.71434 9.05555 5.18295 9.05555 4.62459C9.05555 4.06622 9.61392 3.71724 9.61392 3.71724Z" fill="#7E3232"/>
<path d="M11.6168 10.536C12.494 9.67902 13.3363 8.85705 14.3121 7.9048C13.913 9.38182 13.5597 10.6967 13.2022 12.0105C12.94 12.974 12.6717 13.9359 12.4074 14.8988C12.1502 15.8355 11.5302 16.4131 10.6897 16.4964C9.8166 16.583 9.05735 16.1747 8.67501 15.4131C8.28263 14.6315 8.43883 13.7629 9.12957 13.0501C9.93845 12.2154 10.7638 11.3967 11.6168 10.536Z" fill="#7E3232"/>
</svg>
